<svg xmlns="http://www.w3.org/2000/svg" viewBox="0 0 512 512" width="512" height="512">
  <path d="M256,40 L440,110 L440,340 C440,430 256,480 256,480 C256,480 72,430 72,340 L72,110 Z" fill="#991b1b" stroke="#d4af37" strokeWidth="16" strokeLinejoin="round" />
  <path d="M256,60 L420,125 L420,330 C420,410 256,455 256,455 C256,455 92,410 92,330 L92,125 Z" fill="none" stroke="#ea580c" strokeWidth="6" opacity="0.80" />
  <line x1="256" y1="360" x2="256" y2="150" stroke="#d4af37" strokeWidth="14" strokeLinecap="round" />
  <path d="M256,310 C180,310 160,250 210,230 C240,215 256,250 256,250" fill="#ea580c" />
  <path d="M256,310 C332,310 352,250 302,230 C272,215 256,250 256,250" fill="#ea580c" />
  <path d="M256,250 C180,250 160,190 210,170 C240,155 256,190 256,190" fill="#fb923c" />
  <path d="M256,250 C332,250 352,190 302,170 C272,155 256,190 256,190" fill="#fb923c" />
  <path d="M256,190 C180,190 160,130 210,110 C240,95 256,130 256,130" fill="#ffedd5" />
  <path d="M256,190 C332,190 352,130 302,110 C272,95 256,130 256,130" fill="#ffedd5" />
  <circle cx="256" cy="375" r="55" fill="#d4af37" stroke="#7f1d1d" strokeWidth="8" />
  <circle cx="256" cy="375" r="45" fill="none" stroke="#ffedd5" strokeWidth="3" strokeDasharray="6 4" />
  <path d="M236,395 L236,370 L256,350 L276,370 L276,395 Z" fill="#991b1b" />
  <path d="M230,370 L256,346 L282,370" fill="none" stroke="#ffedd5" strokeWidth="5" strokeLinecap="round" strokeLinejoin="round" />
  <rect x="248" y="374" width="16" height="21" fill="#d4af37" rx="2" />
</svg>
